<svg xmlns="http://www.w3.org/2000/svg" xmlns:xlink="http://www.w3.org/1999/xlink" width="500" zoomAndPan="magnify" viewBox="0 0 375 374.999991" height="500" preserveAspectRatio="xMidYMid meet" version="1.0"><defs><g/><clipPath id="6aa050f439"><path d="M 56.488281 151.464844 L 318.238281 151.464844 L 318.238281 223.464844 L 56.488281 223.464844 Z M 56.488281 151.464844 " clip-rule="nonzero"/></clipPath><clipPath id="7aa9e2be3a"><path d="M 63.558594 158.238281 L 201.285156 158.238281 L 201.285156 216.761719 L 63.558594 216.761719 Z M 63.558594 158.238281 " clip-rule="nonzero"/></clipPath><clipPath id="f16104806d"><path d="M 84.089844 173.234375 L 114.839844 173.234375 L 114.839844 197.984375 L 84.089844 197.984375 Z M 84.089844 173.234375 " clip-rule="nonzero"/></clipPath></defs><rect x="-37.5" width="450" fill="#ffffff" y="-37.499999" height="449.999989" fill-opacity="1"/><rect x="-37.5" width="450" fill="#ffffff" y="-37.499999" height="449.999989" fill-opacity="1"/><rect x="-37.5" width="450" fill="#ffffff" y="-37.499999" height="449.999989" fill-opacity="1"/><g clip-path="url(#6aa050f439)"><path stroke-linecap="butt" transform="matrix(0.750202, 0, 0, 0.749268, 56.489269, 151.465449)" fill="none" stroke-linejoin="miter" d="M -0.00131637 -0.000808127 L 348.904932 -0.000808127 L 348.904932 96.092952 L -0.00131637 96.092952 L -0.00131637 -0.000808127 " stroke="#008080" stroke-width="6" stroke-opacity="1" stroke-miterlimit="4"/></g><g clip-path="url(#7aa9e2be3a)"><path fill="#008080" d="M 63.558594 158.238281 L 201.519531 158.238281 L 201.519531 216.84375 L 63.558594 216.84375 Z M 63.558594 158.238281 " fill-opacity="1" fill-rule="nonzero"/></g><path stroke-linecap="round" transform="matrix(0.75051, 0, 0, 0.75, 56.489269, 238.818016)" fill="none" stroke-linejoin="miter" d="M 0.998005 0.997854 L 90.942072 0.997854 " stroke="#008080" stroke-width="2" stroke-opacity="1" stroke-miterlimit="4"/><path stroke-linecap="round" transform="matrix(0.750988, 0, 0, 0.75, 247.013806, 239.568015)" fill="none" stroke-linejoin="miter" d="M 1.001107 0.997854 L 93.883945 0.997854 " stroke="#008080" stroke-width="2" stroke-opacity="1" stroke-miterlimit="4"/><g fill="#ffffff" fill-opacity="1"><g transform="translate(119.185243, 194.603982)"><g><path d="M 11.570312 0.363281 C 16.347656 0.363281 20.222656 -2.527344 21.402344 -6.910156 L 18.789062 -6.910156 C 17.78125 -3.960938 15 -2.105469 11.65625 -2.105469 C 7.273438 -2.105469 4.15625 -5.28125 4.15625 -9.832031 C 4.15625 -14.378906 7.273438 -17.554688 11.65625 -17.554688 C 14.914062 -17.554688 17.582031 -15.8125 18.59375 -12.976562 L 21.234375 -12.976562 C 19.941406 -17.300781 16.207031 -20.027344 11.570312 -20.027344 C 5.785156 -20.027344 1.628906 -15.757812 1.628906 -9.832031 C 1.628906 -3.902344 5.785156 0.363281 11.570312 0.363281 Z M 11.570312 0.363281 "/></g></g></g><g fill="#ffffff" fill-opacity="1"><g transform="translate(144.231752, 194.603982)"><g><path d="M 2.863281 0 L 5.335938 0 L 5.335938 -19.660156 L 2.863281 -19.660156 Z M 2.863281 0 "/></g></g></g><g fill="#ffffff" fill-opacity="1"><g transform="translate(154.565349, 194.603982)"><g><path d="M 0.476562 0 L 3.117188 0 L 4.914062 -4.464844 L 14.492188 -4.464844 L 16.347656 0 L 18.960938 0 L 10.871094 -19.660156 L 8.566406 -19.660156 Z M 5.871094 -6.769531 L 9.71875 -16.207031 L 13.566406 -6.769531 Z M 5.871094 -6.769531 "/></g></g></g><g fill="#ffffff" fill-opacity="1"><g transform="translate(176.130176, 194.603982)"><g><path d="M 2.863281 0 L 14.886719 0 L 14.886719 -2.359375 L 5.335938 -2.359375 L 5.335938 -19.660156 L 2.863281 -19.660156 Z M 2.863281 0 "/></g></g></g><g fill="#008080" fill-opacity="1"><g transform="translate(212.15845, 196.510115)"><g><path d="M 9.746094 0.449219 C 14.96875 0.449219 18.054688 -2.007812 18.054688 -6.148438 C 18.054688 -9.628906 15.808594 -11.667969 10.707031 -12.808594 C 8.007812 -13.40625 7.019531 -14.066406 7.019531 -15.148438 C 7.019531 -16.167969 7.917969 -16.796875 9.328125 -16.796875 C 11.007812 -16.796875 11.96875 -15.925781 11.96875 -14.335938 L 17.667969 -14.335938 C 17.667969 -18.65625 14.367188 -21.445312 9.207031 -21.445312 C 4.257812 -21.445312 1.199219 -18.984375 1.199219 -15.027344 C 1.199219 -11.488281 3.507812 -9.296875 8.25 -8.398438 C 10.796875 -7.886719 12.027344 -7.109375 12.027344 -5.910156 C 12.027344 -4.859375 11.128906 -4.257812 9.65625 -4.257812 C 7.917969 -4.257812 6.898438 -5.1875 6.898438 -6.808594 L 1.050781 -6.808594 C 1.050781 -2.28125 4.289062 0.449219 9.746094 0.449219 Z M 9.746094 0.449219 "/></g></g></g><g fill="#008080" fill-opacity="1"><g transform="translate(231.323456, 196.510115)"><g><path d="M 7.796875 0 L 13.828125 0 L 13.828125 -7.320312 L 21.476562 -20.996094 L 14.605469 -20.996094 L 10.796875 -13.46875 L 9.179688 -16.648438 L 6.957031 -20.996094 L 0.148438 -20.996094 L 7.796875 -7.289062 Z M 7.796875 0 "/></g></g></g><g fill="#008080" fill-opacity="1"><g transform="translate(252.947816, 196.510115)"><g><path d="M 2.21875 0 L 8.21875 0 L 8.21875 -10.707031 L 16.195312 0 L 21.117188 0 L 21.117188 -20.996094 L 15.148438 -20.996094 L 15.148438 -10.347656 L 7.167969 -20.996094 L 2.21875 -20.996094 Z M 2.21875 0 "/></g></g></g><g fill="#008080" fill-opacity="1"><g transform="translate(276.311724, 196.510115)"><g><path d="M 12.027344 0.449219 C 17.816406 0.449219 22.195312 -3.058594 23.09375 -8.398438 L 16.945312 -8.398438 C 16.195312 -6.417969 14.425781 -5.160156 12.148438 -5.160156 C 9.207031 -5.160156 7.167969 -7.347656 7.167969 -10.496094 C 7.167969 -13.675781 9.238281 -15.835938 12.207031 -15.835938 C 14.398438 -15.835938 16.226562 -14.605469 16.855469 -12.71875 L 22.976562 -12.71875 C 21.894531 -18.027344 17.578125 -21.445312 11.96875 -21.445312 C 5.488281 -21.445312 1.019531 -16.976562 1.019531 -10.496094 C 1.019531 -4.019531 5.488281 0.449219 12.027344 0.449219 Z M 12.027344 0.449219 "/></g></g></g><g fill="#008080" fill-opacity="1"><g transform="translate(137.498609, 245.943015)"><g><path d="M 5 0.171875 C 4.28125 0.171875 3.632812 0.0703125 3.0625 -0.125 C 2.488281 -0.320312 2.007812 -0.578125 1.625 -0.890625 C 1.25 -1.210938 0.96875 -1.566406 0.78125 -1.953125 L 1.515625 -2.84375 L 1.71875 -2.84375 C 2.425781 -1.644531 3.519531 -1.046875 5 -1.046875 C 5.851562 -1.046875 6.488281 -1.222656 6.90625 -1.578125 C 7.332031 -1.941406 7.546875 -2.445312 7.546875 -3.09375 C 7.546875 -3.46875 7.472656 -3.785156 7.328125 -4.046875 C 7.191406 -4.304688 6.960938 -4.523438 6.640625 -4.703125 C 6.328125 -4.890625 5.898438 -5.050781 5.359375 -5.1875 L 4.015625 -5.515625 C 3.023438 -5.753906 2.289062 -6.132812 1.8125 -6.65625 C 1.34375 -7.1875 1.109375 -7.851562 1.109375 -8.65625 C 1.109375 -9.21875 1.253906 -9.722656 1.546875 -10.171875 C 1.835938 -10.617188 2.265625 -10.96875 2.828125 -11.21875 C 3.390625 -11.46875 4.0625 -11.59375 4.84375 -11.59375 C 5.707031 -11.59375 6.429688 -11.46875 7.015625 -11.21875 C 7.609375 -10.976562 8.082031 -10.617188 8.4375 -10.140625 L 7.78125 -9.25 L 7.59375 -9.25 C 7.257812 -9.65625 6.867188 -9.953125 6.421875 -10.140625 C 5.972656 -10.328125 5.445312 -10.421875 4.84375 -10.421875 C 4.050781 -10.421875 3.453125 -10.265625 3.046875 -9.953125 C 2.648438 -9.648438 2.453125 -9.226562 2.453125 -8.6875 C 2.453125 -8.164062 2.597656 -7.753906 2.890625 -7.453125 C 3.191406 -7.148438 3.691406 -6.914062 4.390625 -6.75 L 5.765625 -6.421875 C 6.867188 -6.160156 7.671875 -5.757812 8.171875 -5.21875 C 8.671875 -4.675781 8.921875 -3.988281 8.921875 -3.15625 C 8.921875 -2.507812 8.773438 -1.9375 8.484375 -1.4375 C 8.191406 -0.9375 7.75 -0.539062 7.15625 -0.25 C 6.570312 0.03125 5.851562 0.171875 5 0.171875 Z M 5 0.171875 "/></g></g></g><g fill="#008080" fill-opacity="1"><g transform="translate(147.285287, 245.943015)"><g><path d="M 4.953125 0.171875 C 4.140625 0.171875 3.429688 0 2.828125 -0.34375 C 2.222656 -0.695312 1.757812 -1.207031 1.4375 -1.875 C 1.113281 -2.539062 0.953125 -3.351562 0.953125 -4.3125 C 0.953125 -5.257812 1.113281 -6.066406 1.4375 -6.734375 C 1.757812 -7.410156 2.222656 -7.921875 2.828125 -8.265625 C 3.429688 -8.609375 4.140625 -8.78125 4.953125 -8.78125 C 5.765625 -8.78125 6.46875 -8.609375 7.0625 -8.265625 C 7.664062 -7.921875 8.128906 -7.410156 8.453125 -6.734375 C 8.785156 -6.066406 8.953125 -5.257812 8.953125 -4.3125 C 8.953125 -3.351562 8.785156 -2.539062 8.453125 -1.875 C 8.128906 -1.207031 7.664062 -0.695312 7.0625 -0.34375 C 6.46875 0 5.765625 0.171875 4.953125 0.171875 Z M 4.953125 -0.984375 C 5.804688 -0.984375 6.460938 -1.253906 6.921875 -1.796875 C 7.378906 -2.335938 7.609375 -3.175781 7.609375 -4.3125 C 7.609375 -5.445312 7.378906 -6.285156 6.921875 -6.828125 C 6.460938 -7.367188 5.804688 -7.640625 4.953125 -7.640625 C 4.085938 -7.640625 3.425781 -7.367188 2.96875 -6.828125 C 2.507812 -6.285156 2.28125 -5.445312 2.28125 -4.3125 C 2.28125 -3.175781 2.507812 -2.335938 2.96875 -1.796875 C 3.425781 -1.253906 4.085938 -0.984375 4.953125 -0.984375 Z M 4.953125 -0.984375 "/></g></g></g><g fill="#008080" fill-opacity="1"><g transform="translate(157.173496, 245.943015)"><g><path d="M 4.953125 0.171875 C 4.191406 0.171875 3.507812 0 2.90625 -0.34375 C 2.300781 -0.695312 1.820312 -1.210938 1.46875 -1.890625 C 1.125 -2.566406 0.953125 -3.375 0.953125 -4.3125 C 0.953125 -5.25 1.125 -6.054688 1.46875 -6.734375 C 1.820312 -7.410156 2.300781 -7.921875 2.90625 -8.265625 C 3.507812 -8.609375 4.191406 -8.78125 4.953125 -8.78125 C 5.859375 -8.78125 6.582031 -8.609375 7.125 -8.265625 C 7.664062 -7.921875 8.054688 -7.460938 8.296875 -6.890625 L 7.421875 -6.265625 L 7.265625 -6.265625 C 7.035156 -6.742188 6.734375 -7.09375 6.359375 -7.3125 C 5.992188 -7.53125 5.523438 -7.640625 4.953125 -7.640625 C 4.421875 -7.640625 3.953125 -7.515625 3.546875 -7.265625 C 3.148438 -7.015625 2.835938 -6.640625 2.609375 -6.140625 C 2.390625 -5.640625 2.28125 -5.03125 2.28125 -4.3125 C 2.28125 -3.59375 2.390625 -2.984375 2.609375 -2.484375 C 2.835938 -1.984375 3.148438 -1.609375 3.546875 -1.359375 C 3.953125 -1.109375 4.421875 -0.984375 4.953125 -0.984375 C 5.546875 -0.984375 6.039062 -1.117188 6.4375 -1.390625 C 6.832031 -1.660156 7.140625 -2.085938 7.359375 -2.671875 L 7.53125 -2.671875 L 8.359375 -2.171875 C 8.140625 -1.453125 7.738281 -0.878906 7.15625 -0.453125 C 6.582031 -0.0351562 5.847656 0.171875 4.953125 0.171875 Z M 4.953125 0.171875 "/></g></g></g><g fill="#008080" fill-opacity="1"><g transform="translate(166.054145, 245.943015)"><g><path d="M 3.5625 0.171875 C 2.707031 0.171875 2.039062 -0.0507812 1.5625 -0.5 C 1.09375 -0.945312 0.859375 -1.582031 0.859375 -2.40625 C 0.859375 -2.914062 0.960938 -3.34375 1.171875 -3.6875 C 1.378906 -4.039062 1.703125 -4.328125 2.140625 -4.546875 C 2.585938 -4.773438 3.171875 -4.945312 3.890625 -5.0625 C 4.515625 -5.164062 4.988281 -5.28125 5.3125 -5.40625 C 5.632812 -5.539062 5.851562 -5.6875 5.96875 -5.84375 C 6.082031 -6.007812 6.140625 -6.21875 6.140625 -6.46875 C 6.140625 -6.851562 6.003906 -7.148438 5.734375 -7.359375 C 5.460938 -7.566406 5.03125 -7.671875 4.4375 -7.671875 C 3.882812 -7.671875 3.40625 -7.5625 3 -7.34375 C 2.601562 -7.132812 2.238281 -6.816406 1.90625 -6.390625 L 1.75 -6.390625 L 1.125 -7.265625 C 1.488281 -7.734375 1.953125 -8.101562 2.515625 -8.375 C 3.078125 -8.644531 3.71875 -8.78125 4.4375 -8.78125 C 5.457031 -8.78125 6.207031 -8.554688 6.6875 -8.109375 C 7.164062 -7.671875 7.40625 -7.054688 7.40625 -6.265625 L 7.40625 -1.703125 C 7.40625 -1.222656 7.609375 -0.984375 8.015625 -0.984375 C 8.148438 -0.984375 8.28125 -1.003906 8.40625 -1.046875 L 8.515625 -1.015625 L 8.671875 -0.140625 C 8.578125 -0.078125 8.453125 -0.03125 8.296875 0 C 8.140625 0.0390625 7.984375 0.0625 7.828125 0.0625 C 7.347656 0.0625 6.988281 -0.0390625 6.75 -0.25 C 6.507812 -0.457031 6.351562 -0.765625 6.28125 -1.171875 L 6.125 -1.1875 C 5.875 -0.738281 5.539062 -0.398438 5.125 -0.171875 C 4.707031 0.0546875 4.1875 0.171875 3.5625 0.171875 Z M 3.84375 -0.859375 C 4.320312 -0.859375 4.734375 -0.96875 5.078125 -1.1875 C 5.429688 -1.40625 5.703125 -1.710938 5.890625 -2.109375 C 6.078125 -2.515625 6.171875 -2.984375 6.171875 -3.515625 L 6.171875 -4.609375 L 6.03125 -4.640625 C 5.832031 -4.503906 5.59375 -4.390625 5.3125 -4.296875 C 5.039062 -4.203125 4.660156 -4.117188 4.171875 -4.046875 C 3.671875 -3.984375 3.269531 -3.878906 2.96875 -3.734375 C 2.675781 -3.597656 2.46875 -3.421875 2.34375 -3.203125 C 2.21875 -2.984375 2.15625 -2.71875 2.15625 -2.40625 C 2.15625 -1.894531 2.300781 -1.507812 2.59375 -1.25 C 2.894531 -0.988281 3.3125 -0.859375 3.84375 -0.859375 Z M 3.84375 -0.859375 "/></g></g></g><g fill="#008080" fill-opacity="1"><g transform="translate(174.966037, 245.943015)"><g><path d="M 2.140625 -10.28125 C 1.867188 -10.28125 1.648438 -10.363281 1.484375 -10.53125 C 1.316406 -10.707031 1.234375 -10.925781 1.234375 -11.1875 C 1.234375 -11.445312 1.316406 -11.660156 1.484375 -11.828125 C 1.648438 -11.992188 1.867188 -12.078125 2.140625 -12.078125 C 2.410156 -12.078125 2.628906 -11.992188 2.796875 -11.828125 C 2.972656 -11.660156 3.0625 -11.445312 3.0625 -11.1875 C 3.0625 -10.925781 2.972656 -10.707031 2.796875 -10.53125 C 2.628906 -10.363281 2.410156 -10.28125 2.140625 -10.28125 Z M 1.5 0 L 1.5 -8.625 L 2.78125 -8.625 L 2.78125 0 Z M 1.5 0 "/></g></g></g><g fill="#008080" fill-opacity="1"><g transform="translate(179.238436, 245.943015)"><g><path d="M 3.4375 0.171875 C 2.820312 0.171875 2.335938 0 1.984375 -0.34375 C 1.640625 -0.695312 1.46875 -1.21875 1.46875 -1.90625 L 1.46875 -12.078125 L 2.75 -12.078125 L 2.75 -2 C 2.75 -1.632812 2.816406 -1.375 2.953125 -1.21875 C 3.085938 -1.0625 3.300781 -0.984375 3.59375 -0.984375 C 3.769531 -0.984375 3.953125 -1.007812 4.140625 -1.0625 L 4.25 -1.03125 L 4.390625 -0.03125 C 4.296875 0.03125 4.160156 0.078125 3.984375 0.109375 C 3.816406 0.148438 3.632812 0.171875 3.4375 0.171875 Z M 3.4375 0.171875 "/></g></g></g><g fill="#008080" fill-opacity="1"><g transform="translate(183.924792, 245.943015)"><g/></g></g><g fill="#008080" fill-opacity="1"><g transform="translate(187.845709, 245.943015)"><g><path d="M 2.96875 0 L 1.734375 0 L 1.734375 -11.421875 L 3.71875 -11.421875 L 7.1875 -1.75 L 7.34375 -1.75 L 10.8125 -11.421875 L 12.734375 -11.421875 L 12.734375 0 L 11.453125 0 L 11.453125 -9.328125 L 11.265625 -9.359375 L 7.890625 0 L 6.546875 0 L 3.171875 -9.359375 L 2.96875 -9.328125 Z M 2.96875 0 "/></g></g></g><g fill="#008080" fill-opacity="1"><g transform="translate(202.30312, 245.943015)"><g><path d="M 8.21875 -4.015625 L 2.296875 -4.015625 C 2.328125 -2.972656 2.578125 -2.207031 3.046875 -1.71875 C 3.515625 -1.226562 4.15625 -0.984375 4.96875 -0.984375 C 5.582031 -0.984375 6.078125 -1.09375 6.453125 -1.3125 C 6.828125 -1.53125 7.117188 -1.875 7.328125 -2.34375 L 7.5 -2.34375 L 8.328125 -1.84375 C 8.078125 -1.21875 7.675781 -0.722656 7.125 -0.359375 C 6.570312 -0.00390625 5.851562 0.171875 4.96875 0.171875 C 4.132812 0.171875 3.414062 0.00390625 2.8125 -0.328125 C 2.21875 -0.660156 1.757812 -1.160156 1.4375 -1.828125 C 1.113281 -2.492188 0.953125 -3.320312 0.953125 -4.3125 C 0.953125 -5.289062 1.117188 -6.113281 1.453125 -6.78125 C 1.796875 -7.457031 2.265625 -7.957031 2.859375 -8.28125 C 3.453125 -8.613281 4.128906 -8.78125 4.890625 -8.78125 C 5.992188 -8.78125 6.851562 -8.46875 7.46875 -7.84375 C 8.09375 -7.226562 8.40625 -6.304688 8.40625 -5.078125 C 8.40625 -4.597656 8.394531 -4.273438 8.375 -4.109375 Z M 7.15625 -5.078125 C 7.132812 -5.992188 6.929688 -6.660156 6.546875 -7.078125 C 6.160156 -7.492188 5.609375 -7.703125 4.890625 -7.703125 C 4.128906 -7.703125 3.535156 -7.492188 3.109375 -7.078125 C 2.679688 -6.660156 2.421875 -5.992188 2.328125 -5.078125 Z M 7.15625 -5.078125 "/></g></g></g><g fill="#008080" fill-opacity="1"><g transform="translate(211.488377, 245.943015)"><g><path d="M 4.46875 0.171875 C 3.78125 0.171875 3.171875 0.00390625 2.640625 -0.328125 C 2.109375 -0.660156 1.691406 -1.160156 1.390625 -1.828125 C 1.097656 -2.492188 0.953125 -3.320312 0.953125 -4.3125 C 0.953125 -5.289062 1.109375 -6.113281 1.421875 -6.78125 C 1.734375 -7.457031 2.160156 -7.957031 2.703125 -8.28125 C 3.253906 -8.613281 3.894531 -8.78125 4.625 -8.78125 C 5.195312 -8.78125 5.710938 -8.671875 6.171875 -8.453125 C 6.628906 -8.242188 7.019531 -7.890625 7.34375 -7.390625 L 7.515625 -7.421875 L 7.515625 -12.078125 L 8.78125 -12.078125 L 8.78125 0 L 7.515625 0 L 7.515625 -1.265625 L 7.34375 -1.296875 C 7.0625 -0.867188 6.679688 -0.515625 6.203125 -0.234375 C 5.722656 0.0351562 5.144531 0.171875 4.46875 0.171875 Z M 4.875 -0.984375 C 5.675781 -0.984375 6.316406 -1.253906 6.796875 -1.796875 C 7.273438 -2.347656 7.515625 -3.1875 7.515625 -4.3125 C 7.515625 -5.4375 7.273438 -6.269531 6.796875 -6.8125 C 6.316406 -7.363281 5.675781 -7.640625 4.875 -7.640625 C 4.039062 -7.640625 3.398438 -7.367188 2.953125 -6.828125 C 2.503906 -6.296875 2.28125 -5.457031 2.28125 -4.3125 C 2.28125 -2.09375 3.144531 -0.984375 4.875 -0.984375 Z M 4.875 -0.984375 "/></g></g></g><g fill="#008080" fill-opacity="1"><g transform="translate(221.774932, 245.943015)"><g><path d="M 2.140625 -10.28125 C 1.867188 -10.28125 1.648438 -10.363281 1.484375 -10.53125 C 1.316406 -10.707031 1.234375 -10.925781 1.234375 -11.1875 C 1.234375 -11.445312 1.316406 -11.660156 1.484375 -11.828125 C 1.648438 -11.992188 1.867188 -12.078125 2.140625 -12.078125 C 2.410156 -12.078125 2.628906 -11.992188 2.796875 -11.828125 C 2.972656 -11.660156 3.0625 -11.445312 3.0625 -11.1875 C 3.0625 -10.925781 2.972656 -10.707031 2.796875 -10.53125 C 2.628906 -10.363281 2.410156 -10.28125 2.140625 -10.28125 Z M 1.5 0 L 1.5 -8.625 L 2.78125 -8.625 L 2.78125 0 Z M 1.5 0 "/></g></g></g><g fill="#008080" fill-opacity="1"><g transform="translate(226.047332, 245.943015)"><g><path d="M 3.5625 0.171875 C 2.707031 0.171875 2.039062 -0.0507812 1.5625 -0.5 C 1.09375 -0.945312 0.859375 -1.582031 0.859375 -2.40625 C 0.859375 -2.914062 0.960938 -3.34375 1.171875 -3.6875 C 1.378906 -4.039062 1.703125 -4.328125 2.140625 -4.546875 C 2.585938 -4.773438 3.171875 -4.945312 3.890625 -5.0625 C 4.515625 -5.164062 4.988281 -5.28125 5.3125 -5.40625 C 5.632812 -5.539062 5.851562 -5.6875 5.96875 -5.84375 C 6.082031 -6.007812 6.140625 -6.21875 6.140625 -6.46875 C 6.140625 -6.851562 6.003906 -7.148438 5.734375 -7.359375 C 5.460938 -7.566406 5.03125 -7.671875 4.4375 -7.671875 C 3.882812 -7.671875 3.40625 -7.5625 3 -7.34375 C 2.601562 -7.132812 2.238281 -6.816406 1.90625 -6.390625 L 1.75 -6.390625 L 1.125 -7.265625 C 1.488281 -7.734375 1.953125 -8.101562 2.515625 -8.375 C 3.078125 -8.644531 3.71875 -8.78125 4.4375 -8.78125 C 5.457031 -8.78125 6.207031 -8.554688 6.6875 -8.109375 C 7.164062 -7.671875 7.40625 -7.054688 7.40625 -6.265625 L 7.40625 -1.703125 C 7.40625 -1.222656 7.609375 -0.984375 8.015625 -0.984375 C 8.148438 -0.984375 8.28125 -1.003906 8.40625 -1.046875 L 8.515625 -1.015625 L 8.671875 -0.140625 C 8.578125 -0.078125 8.453125 -0.03125 8.296875 0 C 8.140625 0.0390625 7.984375 0.0625 7.828125 0.0625 C 7.347656 0.0625 6.988281 -0.0390625 6.75 -0.25 C 6.507812 -0.457031 6.351562 -0.765625 6.28125 -1.171875 L 6.125 -1.1875 C 5.875 -0.738281 5.539062 -0.398438 5.125 -0.171875 C 4.707031 0.0546875 4.1875 0.171875 3.5625 0.171875 Z M 3.84375 -0.859375 C 4.320312 -0.859375 4.734375 -0.96875 5.078125 -1.1875 C 5.429688 -1.40625 5.703125 -1.710938 5.890625 -2.109375 C 6.078125 -2.515625 6.171875 -2.984375 6.171875 -3.515625 L 6.171875 -4.609375 L 6.03125 -4.640625 C 5.832031 -4.503906 5.59375 -4.390625 5.3125 -4.296875 C 5.039062 -4.203125 4.660156 -4.117188 4.171875 -4.046875 C 3.671875 -3.984375 3.269531 -3.878906 2.96875 -3.734375 C 2.675781 -3.597656 2.46875 -3.421875 2.34375 -3.203125 C 2.21875 -2.984375 2.15625 -2.71875 2.15625 -2.40625 C 2.15625 -1.894531 2.300781 -1.507812 2.59375 -1.25 C 2.894531 -0.988281 3.3125 -0.859375 3.84375 -0.859375 Z M 3.84375 -0.859375 "/></g></g></g><g fill="#ffffff" fill-opacity="1"><g transform="translate(65.879201, 196.005045)"><g><path d="M 9.75 0.378906 C 14.199219 0.378906 17.082031 -1.804688 17.082031 -5.355469 C 17.082031 -8.351562 15.074219 -10.15625 9.863281 -11.4375 C 5.90625 -12.398438 4.597656 -13.445312 4.597656 -15.132812 C 4.597656 -17.082031 6.34375 -18.304688 9.253906 -18.304688 C 12.25 -18.304688 14.113281 -16.789062 14.171875 -14.347656 L 16.703125 -14.347656 C 16.675781 -18.304688 13.824219 -20.75 9.253906 -20.75 C 4.800781 -20.75 1.980469 -18.566406 1.980469 -15.132812 C 1.980469 -11.988281 4.21875 -10.242188 9.226562 -9.050781 C 12.890625 -8.175781 14.433594 -7.160156 14.433594 -5.265625 C 14.433594 -3.257812 12.628906 -2.066406 9.75 -2.066406 C 6.578125 -2.066406 4.363281 -3.636719 4.308594 -6.257812 L 1.746094 -6.257812 C 1.773438 -2.269531 4.890625 0.378906 9.75 0.378906 Z M 9.75 0.378906 "/></g></g></g><g clip-path="url(#f16104806d)"><path fill="#ffffff" d="M 102.273438 193.097656 C 103.308594 193.097656 104.261719 192.902344 105.152344 192.511719 C 106.023438 192.121094 106.785156 191.601562 107.398438 190.917969 C 108.015625 190.234375 108.5 189.453125 108.855469 188.558594 C 109.210938 187.660156 109.375 186.699219 109.375 185.675781 L 109.375 185.609375 C 109.375 184.585938 109.195312 183.625 108.855469 182.714844 C 108.5 181.800781 108.015625 181.003906 107.367188 180.335938 C 106.722656 179.652344 105.960938 179.117188 105.085938 178.726562 C 104.214844 178.335938 103.242188 178.121094 102.207031 178.121094 C 101.140625 178.121094 100.1875 178.316406 99.3125 178.707031 C 98.4375 179.097656 97.695312 179.621094 97.082031 180.304688 C 96.464844 180.988281 95.980469 181.769531 95.625 182.664062 C 95.269531 183.558594 95.105469 184.519531 95.105469 185.546875 L 95.105469 185.609375 C 95.105469 186.636719 95.285156 187.597656 95.625 188.507812 C 95.980469 189.417969 96.464844 190.21875 97.113281 190.882812 C 97.757812 191.566406 98.503906 192.105469 99.378906 192.496094 C 100.25 192.902344 101.222656 193.097656 102.273438 193.097656 Z M 88.636719 196.582031 L 92.632812 196.582031 C 92.957031 196.582031 93.214844 196.84375 93.214844 197.167969 C 93.214844 197.492188 92.957031 197.753906 92.632812 197.753906 L 88.636719 197.753906 C 88.3125 197.753906 88.054688 197.492188 88.054688 197.167969 C 88.054688 196.84375 88.3125 196.582031 88.636719 196.582031 Z M 87.292969 191.957031 L 89.574219 191.957031 C 89.898438 191.957031 90.15625 192.21875 90.15625 192.542969 C 90.15625 192.871094 89.898438 193.128906 89.574219 193.128906 L 87.292969 193.128906 C 86.96875 193.128906 86.710938 192.871094 86.710938 192.542969 C 86.710938 192.21875 86.96875 191.957031 87.292969 191.957031 Z M 86.648438 182.695312 L 88.039062 182.695312 C 88.363281 182.695312 88.621094 182.957031 88.621094 183.28125 C 88.621094 183.609375 88.363281 183.867188 88.039062 183.867188 L 86.648438 183.867188 C 86.324219 183.867188 86.066406 183.609375 86.066406 183.28125 C 86.082031 182.957031 86.339844 182.695312 86.648438 182.695312 Z M 84.671875 185.007812 L 87.34375 185.007812 C 87.664062 185.007812 87.925781 185.269531 87.925781 185.59375 C 87.925781 185.917969 87.664062 186.179688 87.34375 186.179688 L 84.671875 186.179688 C 84.351562 186.179688 84.089844 185.917969 84.089844 185.59375 C 84.089844 185.269531 84.351562 185.007812 84.671875 185.007812 Z M 94.460938 195.425781 L 93.164062 195.425781 C 92.84375 195.425781 92.582031 195.164062 92.582031 194.839844 C 92.582031 194.53125 92.824219 194.285156 93.117188 194.269531 L 93.636719 194.269531 C 93.957031 194.269531 94.21875 194.007812 94.21875 193.683594 C 94.21875 193.359375 93.957031 193.097656 93.636719 193.097656 L 91.222656 193.097656 C 90.902344 193.097656 90.640625 192.835938 90.640625 192.511719 C 90.640625 192.1875 90.902344 191.925781 91.222656 191.925781 L 92.777344 191.925781 C 93.101562 191.925781 93.359375 191.664062 93.359375 191.339844 C 93.359375 191.015625 93.101562 190.753906 92.777344 190.753906 L 90.382812 190.753906 C 90.058594 190.753906 89.800781 190.492188 89.800781 190.167969 C 89.800781 189.875 90.011719 189.648438 90.285156 189.597656 L 94.863281 189.597656 C 95.1875 189.597656 95.445312 189.339844 95.445312 189.011719 C 95.445312 188.6875 95.1875 188.425781 94.863281 188.425781 L 89.058594 188.425781 C 88.734375 188.425781 88.476562 188.167969 88.476562 187.839844 C 88.476562 187.515625 88.734375 187.253906 89.058594 187.253906 L 91.015625 187.253906 C 91.335938 187.253906 91.597656 186.992188 91.597656 186.667969 C 91.597656 186.34375 91.335938 186.082031 91.015625 186.082031 L 88.945312 186.082031 C 88.621094 186.082031 88.363281 185.820312 88.363281 185.496094 C 88.363281 185.171875 88.621094 184.910156 88.945312 184.910156 L 91.0625 184.910156 C 91.386719 184.910156 91.644531 184.648438 91.644531 184.324219 C 91.644531 184 91.386719 183.738281 91.0625 183.738281 L 89.769531 183.738281 L 89.785156 183.671875 C 89.589844 183.574219 89.460938 183.378906 89.460938 183.152344 C 89.460938 182.84375 89.703125 182.597656 89.996094 182.582031 L 93.390625 182.582031 C 93.714844 182.582031 93.972656 182.324219 93.972656 181.996094 C 93.972656 181.671875 93.714844 181.410156 93.390625 181.410156 L 91.582031 181.410156 C 91.257812 181.410156 91 181.152344 91 180.824219 C 91 180.5 91.257812 180.238281 91.582031 180.238281 L 92.617188 180.238281 C 92.9375 180.238281 93.199219 179.976562 93.199219 179.652344 C 93.199219 179.359375 92.988281 179.132812 92.710938 179.082031 L 89.832031 179.082031 C 89.511719 179.082031 89.25 178.824219 89.25 178.496094 C 89.25 178.171875 89.511719 177.910156 89.832031 177.910156 L 94.703125 177.910156 C 94.75 177.910156 94.800781 177.910156 94.847656 177.925781 L 95.007812 177.925781 C 95.332031 177.925781 95.59375 177.667969 95.59375 177.339844 C 95.59375 177.046875 95.382812 176.820312 95.105469 176.773438 L 93.003906 176.773438 C 92.679688 176.773438 92.421875 176.511719 92.421875 176.1875 C 92.421875 175.859375 92.679688 175.601562 93.003906 175.601562 L 94.523438 175.601562 C 94.539062 175.601562 94.539062 175.601562 94.558594 175.601562 L 96.804688 175.601562 C 97.128906 175.601562 97.386719 175.339844 97.386719 175.015625 C 97.386719 174.722656 97.175781 174.492188 96.902344 174.445312 L 94.71875 174.445312 C 94.394531 174.445312 94.136719 174.183594 94.136719 173.859375 C 94.136719 173.53125 94.394531 173.273438 94.71875 173.273438 C 97.273438 173.484375 99.8125 173.289062 102.273438 173.289062 C 104.101562 173.289062 105.78125 173.613281 107.320312 174.265625 C 108.855469 174.917969 110.183594 175.777344 111.296875 176.886719 C 112.414062 177.992188 113.289062 179.277344 113.902344 180.761719 C 114.519531 182.242188 114.839844 183.835938 114.839844 185.546875 L 114.839844 185.609375 C 114.839844 187.320312 114.519531 188.914062 113.886719 190.394531 C 113.257812 191.878906 112.382812 193.179688 111.265625 194.320312 C 110.148438 195.441406 108.824219 196.320312 107.269531 196.972656 C 105.71875 197.625 104.035156 197.949219 102.207031 197.949219 C 99.734375 197.949219 97.175781 197.753906 94.621094 197.753906 C 94.296875 197.753906 94.039062 197.492188 94.039062 197.167969 C 94.039062 196.84375 94.296875 196.582031 94.621094 196.582031 L 96.382812 196.582031 C 96.707031 196.582031 96.96875 196.320312 96.96875 195.996094 C 96.96875 195.667969 96.707031 195.410156 96.382812 195.410156 L 94.460938 195.410156 Z M 92.4375 173.484375 L 93.296875 173.484375 C 93.617188 173.484375 93.878906 173.746094 93.878906 174.070312 C 93.878906 174.394531 93.617188 174.65625 93.296875 174.65625 L 92.4375 174.65625 C 92.113281 174.65625 91.855469 174.394531 91.855469 174.070312 C 91.871094 173.746094 92.128906 173.484375 92.4375 173.484375 Z M 87.683594 189.648438 L 88.425781 189.648438 C 88.75 189.648438 89.007812 189.90625 89.007812 190.234375 C 89.007812 190.558594 88.75 190.820312 88.425781 190.820312 L 87.683594 190.820312 C 87.359375 190.820312 87.101562 190.558594 87.101562 190.234375 C 87.101562 189.90625 87.359375 189.648438 87.683594 189.648438 Z M 87.683594 189.648438 " fill-opacity="1" fill-rule="evenodd"/></g></svg>