<svg xmlns="http://www.w3.org/2000/svg" xmlns:xlink="http://www.w3.org/1999/xlink" width="500" zoomAndPan="magnify" viewBox="0 0 375 374.999991" height="500" preserveAspectRatio="xMidYMid meet" version="1.0"><defs><g/><clipPath id="f1fcfbd9cd"><path d="M 56.488281 151.464844 L 318.238281 151.464844 L 318.238281 223.464844 L 56.488281 223.464844 Z M 56.488281 151.464844 " clip-rule="nonzero"/></clipPath><clipPath id="abfbec0cfa"><path d="M 63.558594 158.238281 L 201.285156 158.238281 L 201.285156 216.761719 L 63.558594 216.761719 Z M 63.558594 158.238281 " clip-rule="nonzero"/></clipPath><clipPath id="78ad17e9e9"><path d="M 84.089844 173.234375 L 114.839844 173.234375 L 114.839844 197.984375 L 84.089844 197.984375 Z M 84.089844 173.234375 " clip-rule="nonzero"/></clipPath></defs><rect x="-37.5" width="450" fill="#ffffff" y="-37.499999" height="449.999989" fill-opacity="1"/><rect x="-37.5" width="450" fill="#ffffff" y="-37.499999" height="449.999989" fill-opacity="1"/><rect x="-37.5" width="450" fill="#ffffff" y="-37.499999" height="449.999989" fill-opacity="1"/><g clip-path="url(#f1fcfbd9cd)"><path stroke-linecap="butt" transform="matrix(0.750202, 0, 0, 0.749268, 56.489269, 151.465449)" fill="none" stroke-linejoin="miter" d="M -0.00131637 -0.000808127 L 348.904932 -0.000808127 L 348.904932 96.092952 L -0.00131637 96.092952 L -0.00131637 -0.000808127 " stroke="#008080" stroke-width="6" stroke-opacity="1" stroke-miterlimit="4"/></g><g clip-path="url(#abfbec0cfa)"><path fill="#008080" d="M 63.558594 158.238281 L 201.519531 158.238281 L 201.519531 216.84375 L 63.558594 216.84375 Z M 63.558594 158.238281 " fill-opacity="1" fill-rule="nonzero"/></g><g fill="#ffffff" fill-opacity="1"><g transform="translate(119.185243, 194.603982)"><g><path d="M 11.570312 0.363281 C 16.347656 0.363281 20.222656 -2.527344 21.402344 -6.910156 L 18.789062 -6.910156 C 17.78125 -3.960938 15 -2.105469 11.65625 -2.105469 C 7.273438 -2.105469 4.15625 -5.28125 4.15625 -9.832031 C 4.15625 -14.378906 7.273438 -17.554688 11.65625 -17.554688 C 14.914062 -17.554688 17.582031 -15.8125 18.59375 -12.976562 L 21.234375 -12.976562 C 19.941406 -17.300781 16.207031 -20.027344 11.570312 -20.027344 C 5.785156 -20.027344 1.628906 -15.757812 1.628906 -9.832031 C 1.628906 -3.902344 5.785156 0.363281 11.570312 0.363281 Z M 11.570312 0.363281 "/></g></g></g><g fill="#ffffff" fill-opacity="1"><g transform="translate(144.231752, 194.603982)"><g><path d="M 2.863281 0 L 5.335938 0 L 5.335938 -19.660156 L 2.863281 -19.660156 Z M 2.863281 0 "/></g></g></g><g fill="#ffffff" fill-opacity="1"><g transform="translate(154.565349, 194.603982)"><g><path d="M 0.476562 0 L 3.117188 0 L 4.914062 -4.464844 L 14.492188 -4.464844 L 16.347656 0 L 18.960938 0 L 10.871094 -19.660156 L 8.566406 -19.660156 Z M 5.871094 -6.769531 L 9.71875 -16.207031 L 13.566406 -6.769531 Z M 5.871094 -6.769531 "/></g></g></g><g fill="#ffffff" fill-opacity="1"><g transform="translate(176.130176, 194.603982)"><g><path d="M 2.863281 0 L 14.886719 0 L 14.886719 -2.359375 L 5.335938 -2.359375 L 5.335938 -19.660156 L 2.863281 -19.660156 Z M 2.863281 0 "/></g></g></g><g fill="#008080" fill-opacity="1"><g transform="translate(212.15845, 196.510115)"><g><path d="M 9.746094 0.449219 C 14.96875 0.449219 18.054688 -2.007812 18.054688 -6.148438 C 18.054688 -9.628906 15.808594 -11.667969 10.707031 -12.808594 C 8.007812 -13.40625 7.019531 -14.066406 7.019531 -15.148438 C 7.019531 -16.167969 7.917969 -16.796875 9.328125 -16.796875 C 11.007812 -16.796875 11.96875 -15.925781 11.96875 -14.335938 L 17.667969 -14.335938 C 17.667969 -18.65625 14.367188 -21.445312 9.207031 -21.445312 C 4.257812 -21.445312 1.199219 -18.984375 1.199219 -15.027344 C 1.199219 -11.488281 3.507812 -9.296875 8.25 -8.398438 C 10.796875 -7.886719 12.027344 -7.109375 12.027344 -5.910156 C 12.027344 -4.859375 11.128906 -4.257812 9.65625 -4.257812 C 7.917969 -4.257812 6.898438 -5.1875 6.898438 -6.808594 L 1.050781 -6.808594 C 1.050781 -2.28125 4.289062 0.449219 9.746094 0.449219 Z M 9.746094 0.449219 "/></g></g></g><g fill="#008080" fill-opacity="1"><g transform="translate(231.323456, 196.510115)"><g><path d="M 7.796875 0 L 13.828125 0 L 13.828125 -7.320312 L 21.476562 -20.996094 L 14.605469 -20.996094 L 10.796875 -13.46875 L 9.179688 -16.648438 L 6.957031 -20.996094 L 0.148438 -20.996094 L 7.796875 -7.289062 Z M 7.796875 0 "/></g></g></g><g fill="#008080" fill-opacity="1"><g transform="translate(252.947816, 196.510115)"><g><path d="M 2.21875 0 L 8.21875 0 L 8.21875 -10.707031 L 16.195312 0 L 21.117188 0 L 21.117188 -20.996094 L 15.148438 -20.996094 L 15.148438 -10.347656 L 7.167969 -20.996094 L 2.21875 -20.996094 Z M 2.21875 0 "/></g></g></g><g fill="#008080" fill-opacity="1"><g transform="translate(276.311724, 196.510115)"><g><path d="M 12.027344 0.449219 C 17.816406 0.449219 22.195312 -3.058594 23.09375 -8.398438 L 16.945312 -8.398438 C 16.195312 -6.417969 14.425781 -5.160156 12.148438 -5.160156 C 9.207031 -5.160156 7.167969 -7.347656 7.167969 -10.496094 C 7.167969 -13.675781 9.238281 -15.835938 12.207031 -15.835938 C 14.398438 -15.835938 16.226562 -14.605469 16.855469 -12.71875 L 22.976562 -12.71875 C 21.894531 -18.027344 17.578125 -21.445312 11.96875 -21.445312 C 5.488281 -21.445312 1.019531 -16.976562 1.019531 -10.496094 C 1.019531 -4.019531 5.488281 0.449219 12.027344 0.449219 Z M 12.027344 0.449219 "/></g></g></g><g fill="#ffffff" fill-opacity="1"><g transform="translate(65.879201, 196.005045)"><g><path d="M 9.75 0.378906 C 14.199219 0.378906 17.082031 -1.804688 17.082031 -5.355469 C 17.082031 -8.351562 15.074219 -10.15625 9.863281 -11.4375 C 5.90625 -12.398438 4.597656 -13.445312 4.597656 -15.132812 C 4.597656 -17.082031 6.34375 -18.304688 9.253906 -18.304688 C 12.25 -18.304688 14.113281 -16.789062 14.171875 -14.347656 L 16.703125 -14.347656 C 16.675781 -18.304688 13.824219 -20.75 9.253906 -20.75 C 4.800781 -20.75 1.980469 -18.566406 1.980469 -15.132812 C 1.980469 -11.988281 4.21875 -10.242188 9.226562 -9.050781 C 12.890625 -8.175781 14.433594 -7.160156 14.433594 -5.265625 C 14.433594 -3.257812 12.628906 -2.066406 9.75 -2.066406 C 6.578125 -2.066406 4.363281 -3.636719 4.308594 -6.257812 L 1.746094 -6.257812 C 1.773438 -2.269531 4.890625 0.378906 9.75 0.378906 Z M 9.75 0.378906 "/></g></g></g><g clip-path="url(#78ad17e9e9)"><path fill="#ffffff" d="M 102.273438 193.097656 C 103.308594 193.097656 104.261719 192.902344 105.152344 192.511719 C 106.023438 192.121094 106.785156 191.601562 107.398438 190.917969 C 108.015625 190.234375 108.5 189.453125 108.855469 188.558594 C 109.210938 187.660156 109.375 186.699219 109.375 185.675781 L 109.375 185.609375 C 109.375 184.585938 109.195312 183.625 108.855469 182.714844 C 108.5 181.800781 108.015625 181.003906 107.367188 180.335938 C 106.722656 179.652344 105.960938 179.117188 105.085938 178.726562 C 104.214844 178.335938 103.242188 178.121094 102.207031 178.121094 C 101.140625 178.121094 100.1875 178.316406 99.3125 178.707031 C 98.4375 179.097656 97.695312 179.621094 97.082031 180.304688 C 96.464844 180.988281 95.980469 181.769531 95.625 182.664062 C 95.269531 183.558594 95.105469 184.519531 95.105469 185.546875 L 95.105469 185.609375 C 95.105469 186.636719 95.285156 187.597656 95.625 188.507812 C 95.980469 189.417969 96.464844 190.21875 97.113281 190.882812 C 97.757812 191.566406 98.503906 192.105469 99.378906 192.496094 C 100.25 192.902344 101.222656 193.097656 102.273438 193.097656 Z M 88.636719 196.582031 L 92.632812 196.582031 C 92.957031 196.582031 93.214844 196.84375 93.214844 197.167969 C 93.214844 197.492188 92.957031 197.753906 92.632812 197.753906 L 88.636719 197.753906 C 88.3125 197.753906 88.054688 197.492188 88.054688 197.167969 C 88.054688 196.84375 88.3125 196.582031 88.636719 196.582031 Z M 87.292969 191.957031 L 89.574219 191.957031 C 89.898438 191.957031 90.15625 192.21875 90.15625 192.542969 C 90.15625 192.871094 89.898438 193.128906 89.574219 193.128906 L 87.292969 193.128906 C 86.96875 193.128906 86.710938 192.871094 86.710938 192.542969 C 86.710938 192.21875 86.96875 191.957031 87.292969 191.957031 Z M 86.648438 182.695312 L 88.039062 182.695312 C 88.363281 182.695312 88.621094 182.957031 88.621094 183.28125 C 88.621094 183.609375 88.363281 183.867188 88.039062 183.867188 L 86.648438 183.867188 C 86.324219 183.867188 86.066406 183.609375 86.066406 183.28125 C 86.082031 182.957031 86.339844 182.695312 86.648438 182.695312 Z M 84.671875 185.007812 L 87.34375 185.007812 C 87.664062 185.007812 87.925781 185.269531 87.925781 185.59375 C 87.925781 185.917969 87.664062 186.179688 87.34375 186.179688 L 84.671875 186.179688 C 84.351562 186.179688 84.089844 185.917969 84.089844 185.59375 C 84.089844 185.269531 84.351562 185.007812 84.671875 185.007812 Z M 94.460938 195.425781 L 93.164062 195.425781 C 92.84375 195.425781 92.582031 195.164062 92.582031 194.839844 C 92.582031 194.53125 92.824219 194.285156 93.117188 194.269531 L 93.636719 194.269531 C 93.957031 194.269531 94.21875 194.007812 94.21875 193.683594 C 94.21875 193.359375 93.957031 193.097656 93.636719 193.097656 L 91.222656 193.097656 C 90.902344 193.097656 90.640625 192.835938 90.640625 192.511719 C 90.640625 192.1875 90.902344 191.925781 91.222656 191.925781 L 92.777344 191.925781 C 93.101562 191.925781 93.359375 191.664062 93.359375 191.339844 C 93.359375 191.015625 93.101562 190.753906 92.777344 190.753906 L 90.382812 190.753906 C 90.058594 190.753906 89.800781 190.492188 89.800781 190.167969 C 89.800781 189.875 90.011719 189.648438 90.285156 189.597656 L 94.863281 189.597656 C 95.1875 189.597656 95.445312 189.339844 95.445312 189.011719 C 95.445312 188.6875 95.1875 188.425781 94.863281 188.425781 L 89.058594 188.425781 C 88.734375 188.425781 88.476562 188.167969 88.476562 187.839844 C 88.476562 187.515625 88.734375 187.253906 89.058594 187.253906 L 91.015625 187.253906 C 91.335938 187.253906 91.597656 186.992188 91.597656 186.667969 C 91.597656 186.34375 91.335938 186.082031 91.015625 186.082031 L 88.945312 186.082031 C 88.621094 186.082031 88.363281 185.820312 88.363281 185.496094 C 88.363281 185.171875 88.621094 184.910156 88.945312 184.910156 L 91.0625 184.910156 C 91.386719 184.910156 91.644531 184.648438 91.644531 184.324219 C 91.644531 184 91.386719 183.738281 91.0625 183.738281 L 89.769531 183.738281 L 89.785156 183.671875 C 89.589844 183.574219 89.460938 183.378906 89.460938 183.152344 C 89.460938 182.84375 89.703125 182.597656 89.996094 182.582031 L 93.390625 182.582031 C 93.714844 182.582031 93.972656 182.324219 93.972656 181.996094 C 93.972656 181.671875 93.714844 181.410156 93.390625 181.410156 L 91.582031 181.410156 C 91.257812 181.410156 91 181.152344 91 180.824219 C 91 180.5 91.257812 180.238281 91.582031 180.238281 L 92.617188 180.238281 C 92.9375 180.238281 93.199219 179.976562 93.199219 179.652344 C 93.199219 179.359375 92.988281 179.132812 92.710938 179.082031 L 89.832031 179.082031 C 89.511719 179.082031 89.25 178.824219 89.25 178.496094 C 89.25 178.171875 89.511719 177.910156 89.832031 177.910156 L 94.703125 177.910156 C 94.75 177.910156 94.800781 177.910156 94.847656 177.925781 L 95.007812 177.925781 C 95.332031 177.925781 95.59375 177.667969 95.59375 177.339844 C 95.59375 177.046875 95.382812 176.820312 95.105469 176.773438 L 93.003906 176.773438 C 92.679688 176.773438 92.421875 176.511719 92.421875 176.1875 C 92.421875 175.859375 92.679688 175.601562 93.003906 175.601562 L 94.523438 175.601562 C 94.539062 175.601562 94.539062 175.601562 94.558594 175.601562 L 96.804688 175.601562 C 97.128906 175.601562 97.386719 175.339844 97.386719 175.015625 C 97.386719 174.722656 97.175781 174.492188 96.902344 174.445312 L 94.71875 174.445312 C 94.394531 174.445312 94.136719 174.183594 94.136719 173.859375 C 94.136719 173.53125 94.394531 173.273438 94.71875 173.273438 C 97.273438 173.484375 99.8125 173.289062 102.273438 173.289062 C 104.101562 173.289062 105.78125 173.613281 107.320312 174.265625 C 108.855469 174.917969 110.183594 175.777344 111.296875 176.886719 C 112.414062 177.992188 113.289062 179.277344 113.902344 180.761719 C 114.519531 182.242188 114.839844 183.835938 114.839844 185.546875 L 114.839844 185.609375 C 114.839844 187.320312 114.519531 188.914062 113.886719 190.394531 C 113.257812 191.878906 112.382812 193.179688 111.265625 194.320312 C 110.148438 195.441406 108.824219 196.320312 107.269531 196.972656 C 105.71875 197.625 104.035156 197.949219 102.207031 197.949219 C 99.734375 197.949219 97.175781 197.753906 94.621094 197.753906 C 94.296875 197.753906 94.039062 197.492188 94.039062 197.167969 C 94.039062 196.84375 94.296875 196.582031 94.621094 196.582031 L 96.382812 196.582031 C 96.707031 196.582031 96.96875 196.320312 96.96875 195.996094 C 96.96875 195.667969 96.707031 195.410156 96.382812 195.410156 L 94.460938 195.410156 Z M 92.4375 173.484375 L 93.296875 173.484375 C 93.617188 173.484375 93.878906 173.746094 93.878906 174.070312 C 93.878906 174.394531 93.617188 174.65625 93.296875 174.65625 L 92.4375 174.65625 C 92.113281 174.65625 91.855469 174.394531 91.855469 174.070312 C 91.871094 173.746094 92.128906 173.484375 92.4375 173.484375 Z M 87.683594 189.648438 L 88.425781 189.648438 C 88.75 189.648438 89.007812 189.90625 89.007812 190.234375 C 89.007812 190.558594 88.75 190.820312 88.425781 190.820312 L 87.683594 190.820312 C 87.359375 190.820312 87.101562 190.558594 87.101562 190.234375 C 87.101562 189.90625 87.359375 189.648438 87.683594 189.648438 Z M 87.683594 189.648438 " fill-opacity="1" fill-rule="evenodd"/></g></svg>