<svg xmlns="http://www.w3.org/2000/svg" xmlns:xlink="http://www.w3.org/1999/xlink" width="500" zoomAndPan="magnify" viewBox="0 0 375 374.999991" height="500" preserveAspectRatio="xMidYMid meet" version="1.0"><defs><g/><clipPath id="1a1c2a090b"><path d="M 57.550781 159.078125 L 94.300781 159.078125 L 94.300781 195.828125 L 57.550781 195.828125 Z M 57.550781 159.078125 " clip-rule="nonzero"/></clipPath></defs><rect x="-37.5" width="450" fill="#ffffff" y="-37.499999" height="449.999989" fill-opacity="1"/><rect x="-37.5" width="450" fill="#ffffff" y="-37.499999" height="449.999989" fill-opacity="1"/><rect x="-37.5" width="450" fill="#ffffff" y="-37.499999" height="449.999989" fill-opacity="1"/><g clip-path="url(#1a1c2a090b)"><path fill="#ef2945" d="M 94.300781 177.453125 C 94.300781 178.054688 94.273438 178.652344 94.214844 179.253906 C 94.15625 179.851562 94.066406 180.445312 93.949219 181.035156 C 93.832031 181.628906 93.6875 182.210938 93.511719 182.785156 C 93.335938 183.363281 93.132812 183.929688 92.902344 184.484375 C 92.671875 185.039062 92.417969 185.582031 92.132812 186.113281 C 91.847656 186.644531 91.539062 187.160156 91.207031 187.660156 C 90.871094 188.160156 90.511719 188.644531 90.132812 189.109375 C 89.75 189.574219 89.347656 190.019531 88.921875 190.445312 C 88.496094 190.871094 88.050781 191.273438 87.585938 191.65625 C 87.117188 192.039062 86.636719 192.394531 86.136719 192.730469 C 85.636719 193.066406 85.121094 193.375 84.589844 193.65625 C 84.058594 193.941406 83.515625 194.199219 82.960938 194.429688 C 82.402344 194.660156 81.835938 194.859375 81.261719 195.035156 C 80.683594 195.210938 80.101562 195.355469 79.511719 195.472656 C 78.921875 195.589844 78.328125 195.679688 77.726562 195.738281 C 77.128906 195.796875 76.527344 195.828125 75.925781 195.828125 C 75.324219 195.828125 74.726562 195.796875 74.125 195.738281 C 73.527344 195.679688 72.933594 195.589844 72.34375 195.472656 C 71.753906 195.355469 71.167969 195.210938 70.59375 195.035156 C 70.015625 194.859375 69.453125 194.660156 68.894531 194.429688 C 68.339844 194.199219 67.796875 193.941406 67.265625 193.65625 C 66.734375 193.375 66.21875 193.066406 65.71875 192.730469 C 65.21875 192.394531 64.734375 192.039062 64.269531 191.65625 C 63.804688 191.273438 63.359375 190.871094 62.933594 190.445312 C 62.507812 190.019531 62.105469 189.574219 61.722656 189.109375 C 61.339844 188.644531 60.984375 188.160156 60.648438 187.660156 C 60.316406 187.160156 60.003906 186.644531 59.722656 186.113281 C 59.4375 185.582031 59.179688 185.039062 58.949219 184.484375 C 58.71875 183.929688 58.519531 183.363281 58.34375 182.785156 C 58.167969 182.210938 58.023438 181.628906 57.90625 181.035156 C 57.789062 180.445312 57.699219 179.851562 57.640625 179.253906 C 57.582031 178.652344 57.550781 178.054688 57.550781 177.453125 C 57.550781 176.851562 57.582031 176.25 57.640625 175.652344 C 57.699219 175.050781 57.789062 174.457031 57.90625 173.867188 C 58.023438 173.277344 58.167969 172.695312 58.34375 172.117188 C 58.519531 171.542969 58.71875 170.976562 58.949219 170.421875 C 59.179688 169.863281 59.4375 169.320312 59.722656 168.789062 C 60.003906 168.257812 60.316406 167.742188 60.648438 167.242188 C 60.984375 166.742188 61.339844 166.261719 61.722656 165.796875 C 62.105469 165.328125 62.507812 164.882812 62.933594 164.460938 C 63.359375 164.035156 63.804688 163.628906 64.269531 163.246094 C 64.734375 162.867188 65.21875 162.507812 65.71875 162.171875 C 66.21875 161.839844 66.734375 161.53125 67.265625 161.246094 C 67.796875 160.964844 68.339844 160.707031 68.894531 160.476562 C 69.453125 160.246094 70.015625 160.042969 70.59375 159.867188 C 71.167969 159.695312 71.753906 159.546875 72.34375 159.429688 C 72.933594 159.3125 73.527344 159.222656 74.125 159.164062 C 74.726562 159.105469 75.324219 159.078125 75.925781 159.078125 C 76.527344 159.078125 77.128906 159.105469 77.726562 159.164062 C 78.328125 159.222656 78.921875 159.3125 79.511719 159.429688 C 80.101562 159.546875 80.683594 159.695312 81.261719 159.867188 C 81.835938 160.042969 82.402344 160.246094 82.960938 160.476562 C 83.515625 160.707031 84.058594 160.964844 84.589844 161.246094 C 85.121094 161.53125 85.636719 161.839844 86.136719 162.171875 C 86.636719 162.507812 87.117188 162.867188 87.585938 163.246094 C 88.050781 163.628906 88.496094 164.035156 88.921875 164.460938 C 89.347656 164.882812 89.75 165.328125 90.132812 165.796875 C 90.511719 166.261719 90.871094 166.742188 91.207031 167.242188 C 91.539062 167.742188 91.847656 168.257812 92.132812 168.789062 C 92.417969 169.320312 92.671875 169.863281 92.902344 170.421875 C 93.132812 170.976562 93.335938 171.542969 93.511719 172.117188 C 93.6875 172.695312 93.832031 173.277344 93.949219 173.867188 C 94.066406 174.457031 94.15625 175.050781 94.214844 175.652344 C 94.273438 176.25 94.300781 176.851562 94.300781 177.453125 Z M 94.300781 177.453125 " fill-opacity="1" fill-rule="nonzero"/></g><path fill="#ffffff" d="M 71.230469 169.285156 C 73.363281 169.285156 75.214844 170.496094 76.132812 172.269531 C 77.046875 170.496094 78.898438 169.285156 81.03125 169.285156 C 84.074219 169.285156 86.542969 171.753906 86.542969 174.796875 C 86.542969 182.117188 78.203125 186.246094 76.242188 186.246094 C 73.9375 186.246094 65.71875 182.179688 65.71875 174.796875 C 65.71875 171.753906 68.1875 169.285156 71.230469 169.285156 Z M 71.230469 169.285156 " fill-opacity="1" fill-rule="evenodd"/><g fill="#008080" fill-opacity="1"><g transform="translate(96.976697, 193.017453)"><g><path d="M 10.800781 0 L 30.359375 0 C 31.398438 0 32.199219 -0.839844 32.199219 -1.878906 L 32.199219 -7.199219 C 32.199219 -8.238281 31.398438 -9.039062 30.359375 -9.039062 L 14 -9.039062 C 13 -9.039062 12.199219 -9.839844 12.199219 -10.839844 L 12.199219 -21.160156 C 12.199219 -22.199219 13 -23 14 -23 L 30.359375 -23 C 31.398438 -23 32.199219 -23.796875 32.199219 -24.839844 L 32.199219 -30.15625 C 32.199219 -31.199219 31.398438 -31.996094 30.359375 -31.996094 L 10.800781 -31.996094 C 5.601562 -31.996094 1.839844 -28.238281 1.839844 -23.039062 L 1.839844 -9 C 1.839844 -3.800781 5.601562 0 10.800781 0 Z M 10.800781 0 "/></g></g></g><g fill="#008080" fill-opacity="1"><g transform="translate(131.013312, 193.017453)"><g><path d="M 3.679688 0 L 10.359375 0 C 11.398438 0 12.199219 -0.800781 12.199219 -1.839844 L 12.199219 -30.15625 C 12.199219 -31.199219 11.398438 -31.996094 10.359375 -31.996094 L 3.679688 -31.996094 C 2.640625 -31.996094 1.839844 -31.199219 1.839844 -30.15625 L 1.839844 -1.839844 C 1.839844 -0.800781 2.640625 0 3.679688 0 Z M 3.679688 0 "/></g></g></g><g fill="#008080" fill-opacity="1"><g transform="translate(145.051916, 193.017453)"><g><path d="M 3.679688 0 L 10.359375 0 C 11.398438 0 12.199219 -0.800781 12.199219 -1.839844 L 12.199219 -7 C 12.199219 -8.039062 13 -8.839844 14 -8.839844 C 15.039062 -8.839844 15.839844 -8 15.839844 -7 L 15.839844 -1.839844 C 15.839844 -0.800781 16.640625 0 17.679688 0 L 24.359375 0 C 25.398438 0 26.199219 -0.800781 26.199219 -1.839844 L 26.199219 -23.039062 C 26.199219 -28.238281 22.4375 -31.996094 17.238281 -31.996094 L 10.800781 -31.996094 C 5.601562 -31.996094 1.839844 -28.238281 1.839844 -23.039062 L 1.839844 -1.839844 C 1.839844 -0.800781 2.640625 0 3.679688 0 Z M 14 -16.277344 C 13 -16.277344 12.199219 -17.078125 12.199219 -18.078125 L 12.199219 -21.757812 C 12.199219 -22.796875 13 -23.597656 14 -23.597656 C 15.039062 -23.597656 15.839844 -22.796875 15.839844 -21.757812 L 15.839844 -18.078125 C 15.839844 -17.078125 15.039062 -16.277344 14 -16.277344 Z M 14 -16.277344 "/></g></g></g><g fill="#008080" fill-opacity="1"><g transform="translate(173.089126, 193.017453)"><g><path d="M 3.679688 0 L 22.359375 0 C 23.398438 0 24.199219 -0.800781 24.199219 -1.839844 L 24.199219 -7.199219 C 24.199219 -8.238281 23.398438 -9.039062 22.359375 -9.039062 L 14.039062 -9.039062 C 13 -9.039062 12.199219 -9.839844 12.199219 -10.839844 L 12.199219 -30.15625 C 12.199219 -31.199219 11.398438 -31.996094 10.359375 -31.996094 L 3.679688 -31.996094 C 2.640625 -31.996094 1.839844 -31.199219 1.839844 -30.15625 L 1.839844 -1.839844 C 1.839844 -0.800781 2.640625 0 3.679688 0 Z M 3.679688 0 "/></g></g></g><g fill="#008080" fill-opacity="1"><g transform="translate(199.117315, 193.017453)"><g/></g></g><g fill="#008080" fill-opacity="1"><g transform="translate(206.529293, 193.017453)"><g><path d="M 3.679688 0 L 23.4375 0 C 28.519531 0 32.199219 -3.71875 32.199219 -8.800781 L 32.199219 -11.398438 C 32.199219 -16.480469 28.519531 -20.160156 23.4375 -20.160156 L 14 -20.160156 C 13 -20.160156 12.199219 -20.957031 12.199219 -21.957031 C 12.199219 -23 13 -23.796875 14 -23.796875 L 30.359375 -23.796875 C 31.398438 -23.796875 32.199219 -24.597656 32.199219 -25.636719 L 32.199219 -30.15625 C 32.199219 -31.199219 31.398438 -31.996094 30.359375 -31.996094 L 10.597656 -31.996094 C 5.519531 -31.996094 1.839844 -28.316406 1.839844 -23.238281 L 1.839844 -20.640625 C 1.839844 -15.558594 5.519531 -11.878906 10.597656 -11.878906 L 20 -11.878906 C 21.039062 -11.878906 21.839844 -11.039062 21.839844 -10.039062 C 21.839844 -9.039062 21.039062 -8.238281 20 -8.238281 L 3.679688 -8.238281 C 2.640625 -8.238281 1.839844 -7.441406 1.839844 -6.398438 L 1.839844 -1.839844 C 1.839844 -0.800781 2.640625 0 3.679688 0 Z M 3.679688 0 "/></g></g></g><g fill="#008080" fill-opacity="1"><g transform="translate(240.565908, 193.017453)"><g><path d="M 10.71875 0 L 17.398438 0 C 18.4375 0 19.238281 -0.800781 19.238281 -1.839844 L 19.238281 -11.800781 C 19.238281 -12.839844 20.039062 -13.640625 21.039062 -13.640625 L 24.4375 -13.640625 C 25.476562 -13.640625 26.277344 -14.398438 26.277344 -15.4375 L 26.277344 -30.117188 C 26.277344 -31.199219 25.476562 -31.996094 24.4375 -31.996094 L 17.757812 -31.996094 C 16.71875 -31.996094 15.917969 -31.199219 15.917969 -30.15625 L 15.917969 -22.636719 C 15.917969 -21.558594 15.078125 -20.757812 14.039062 -20.757812 C 13.039062 -20.757812 12.199219 -21.558594 12.199219 -22.636719 L 12.199219 -30.15625 C 12.199219 -31.199219 11.398438 -31.996094 10.359375 -31.996094 L 3.679688 -31.996094 C 2.640625 -31.996094 1.839844 -31.199219 1.839844 -30.117188 L 1.839844 -15.4375 C 1.839844 -14.398438 2.640625 -13.640625 3.679688 -13.640625 L 7.039062 -13.640625 C 8.078125 -13.640625 8.878906 -12.800781 8.878906 -11.800781 L 8.878906 -1.839844 C 8.878906 -0.800781 9.679688 0 10.71875 0 Z M 10.71875 0 "/></g></g></g><g fill="#008080" fill-opacity="1"><g transform="translate(268.683113, 193.017453)"><g><path d="M 3.679688 0 L 10.359375 0 C 11.398438 0 12.199219 -0.800781 12.199219 -1.839844 L 12.199219 -20.480469 C 12.199219 -21.480469 13 -22.277344 14 -22.277344 C 15.039062 -22.277344 15.839844 -21.480469 15.839844 -20.480469 L 15.839844 -1.839844 C 15.839844 -0.800781 16.640625 0 17.679688 0 L 36.757812 0 C 37.796875 0 38.597656 -0.800781 38.597656 -1.839844 L 38.597656 -30.15625 C 38.597656 -31.199219 37.796875 -31.996094 36.757812 -31.996094 L 30.078125 -31.996094 C 29.039062 -31.996094 28.238281 -31.199219 28.238281 -30.15625 L 28.238281 -11.398438 C 28.238281 -10.398438 27.4375 -9.597656 26.398438 -9.597656 C 25.398438 -9.597656 24.597656 -10.398438 24.597656 -11.398438 L 24.597656 -30.15625 C 24.597656 -31.238281 23.796875 -31.996094 22.757812 -31.996094 L 3.679688 -31.996094 C 2.640625 -31.996094 1.839844 -31.199219 1.839844 -30.15625 L 1.839844 -1.839844 C 1.839844 -0.800781 2.640625 0 3.679688 0 Z M 3.679688 0 "/></g></g></g><g fill="#008080" fill-opacity="1"><g transform="translate(309.119092, 193.017453)"><g><path d="M 10.800781 0 L 30.359375 0 C 31.398438 0 32.199219 -0.839844 32.199219 -1.878906 L 32.199219 -7.199219 C 32.199219 -8.238281 31.398438 -9.039062 30.359375 -9.039062 L 14 -9.039062 C 13 -9.039062 12.199219 -9.839844 12.199219 -10.839844 L 12.199219 -21.160156 C 12.199219 -22.199219 13 -23 14 -23 L 30.359375 -23 C 31.398438 -23 32.199219 -23.796875 32.199219 -24.839844 L 32.199219 -30.15625 C 32.199219 -31.199219 31.398438 -31.996094 30.359375 -31.996094 L 10.800781 -31.996094 C 5.601562 -31.996094 1.839844 -28.238281 1.839844 -23.039062 L 1.839844 -9 C 1.839844 -3.800781 5.601562 0 10.800781 0 Z M 10.800781 0 "/></g></g></g><g fill="#008080" fill-opacity="1"><g transform="translate(20.479691, 193.017467)"><g><path d="M 3.679688 0 L 23.4375 0 C 28.519531 0 32.199219 -3.71875 32.199219 -8.800781 L 32.199219 -11.398438 C 32.199219 -16.480469 28.519531 -20.160156 23.4375 -20.160156 L 14 -20.160156 C 13 -20.160156 12.199219 -20.957031 12.199219 -21.957031 C 12.199219 -23 13 -23.796875 14 -23.796875 L 30.359375 -23.796875 C 31.398438 -23.796875 32.199219 -24.597656 32.199219 -25.636719 L 32.199219 -30.15625 C 32.199219 -31.199219 31.398438 -31.996094 30.359375 -31.996094 L 10.597656 -31.996094 C 5.519531 -31.996094 1.839844 -28.316406 1.839844 -23.238281 L 1.839844 -20.640625 C 1.839844 -15.558594 5.519531 -11.878906 10.597656 -11.878906 L 20 -11.878906 C 21.039062 -11.878906 21.839844 -11.039062 21.839844 -10.039062 C 21.839844 -9.039062 21.039062 -8.238281 20 -8.238281 L 3.679688 -8.238281 C 2.640625 -8.238281 1.839844 -7.441406 1.839844 -6.398438 L 1.839844 -1.839844 C 1.839844 -0.800781 2.640625 0 3.679688 0 Z M 3.679688 0 "/></g></g></g></svg>